<svg width="984" height="709" viewBox="0 0 984 709" fill="none" xmlns="http://www.w3.org/2000/svg">
<g clip-path="url(#clip0_69_1687)">
<path d="M380.58 502.75L349.74 609.09L318.91 502.75H289.27L321.77 614.84H377.72L410.22 502.75H380.58Z" fill="#191919"/>
<path d="M274.31 614.84V502.73H244.95V528.22L243.44 524.14C239.06 512.3 226.65 499.65 205 499.65C189.25 499.65 155.5 511.62 155.5 558.92C155.5 606.22 189.26 617.93 205 617.93C226.6 617.93 239.02 605.41 243.44 593.69L244.95 589.69V614.83H274.31V614.84ZM215.27 595.26C196.39 595.26 186.11 581.67 186.11 558.92C186.11 536 196.38 522.32 215.27 522.32C233.77 522.32 245.2 536.1 245.2 556.6V560.98C245.2 581.49 233.77 595.26 215.27 595.26Z" fill="#191919"/>
<path d="M534.04 614.84V502.73H504.68V528.22L503.17 524.14C498.79 512.3 486.38 499.65 464.73 499.65C448.98 499.65 415.23 511.62 415.23 558.92C415.23 606.22 448.99 617.93 464.73 617.93C486.33 617.93 498.75 605.41 503.17 593.69L504.68 589.69V614.83H534.04V614.84ZM475 595.26C456.12 595.26 445.84 581.67 445.84 558.92C445.84 536 456.11 522.32 475 522.32C493.5 522.32 504.93 536.1 504.93 556.6V560.98C504.93 581.49 493.5 595.26 475 595.26Z" fill="#191919"/>
<path d="M29.42 614.84L42.09 571.17H106.73L119.4 614.84H149.04L102.38 454.04H46.42L-0.22998 614.83H29.42V614.84ZM74.41 459.78L101.15 551.93H47.68L74.41 459.78Z" fill="#191919"/>
<path d="M557.046 618V455.721H585.87V618H557.046Z" fill="#191919"/>
<path d="M860.315 618L903.551 556.893L862.621 499.533H894.904L921.998 539.887L949.093 499.533H981.664L940.734 556.893L984.258 618H951.975L921.998 574.476L892.598 618H860.315Z" fill="#191919"/>
<path d="M736.712 618V499.533H761.789L762.5 525.187H763.265C763.458 524.61 764.13 523.073 765.283 520.575C766.628 517.884 768.742 514.906 771.624 511.639C774.699 508.373 778.734 505.586 783.73 503.28C788.919 500.782 795.356 499.533 803.042 499.533C811.498 499.533 822.319 500.974 827.508 503.857C832.888 506.547 837.116 510.198 840.19 514.81C843.265 519.23 845.378 524.226 846.531 529.798C847.876 535.179 848.645 540.559 848.837 545.94C849.222 551.32 849.414 556.22 849.414 560.64V618H820.59V560.352C820.59 554.011 819.917 548.246 818.572 543.057C817.419 537.869 815.017 533.642 811.366 530.375C807.907 527.108 802.431 525.475 794.936 525.475C787.25 525.475 781.389 527.3 777.354 530.951C773.318 534.41 770.532 538.83 768.995 544.21C767.458 549.591 766.689 555.356 766.689 561.505V618H736.712Z" fill="#191919"/>
<path fill-rule="evenodd" clip-rule="evenodd" d="M664.844 584.525C676.942 551.69 691.747 511.658 696.809 498.924L723.158 498.924C721.646 502.922 710.834 532.018 700.672 559.363C691.685 583.547 683.207 606.362 682.122 609.233C674.901 628.313 658.42 634.281 650.165 636.115C647.757 636.775 645.245 638.436 643.595 642.75C635.212 665.012 626.813 687.267 618.353 709.5C615.176 709.5 603.06 709.5 595.867 709.5L592.748 709.5H592.079C600.555 687.222 607.788 668.203 609.514 663.644C616.736 644.564 633.216 638.596 641.471 636.763C643.706 636.268 646.07 635.458 647.711 631.001C648.341 629.33 649.829 625.304 651.916 619.639L600 498.646H627.63L664.844 584.525Z" fill="#191919"/>
</g>
<path d="M455.55 44.8537C455.55 44.8537 446.98 74.8646 444.146 84.7675C443.116 88.5314 440.326 89.5172 437.626 90.2342C427.656 92.8891 408.288 100.014 403.627 116.156C400.928 125.51 377.168 206.962 371.914 224.975H403.885C407.604 212.193 432.048 128.423 432.653 126.306C436.047 114.431 439.352 102.848 441.693 94.6591C442.768 91.0071 445.546 89.3268 448.425 88.453C458.395 85.7981 477.764 78.6734 482.424 62.5309C483.914 57.3555 487.533 44.8425 487.533 44.8425H455.55V44.8537Z" fill="#191919"/>
<path d="M344.289 44.854C344.289 44.854 324.136 115.787 321.302 125.69C320.271 129.454 317.482 130.439 314.782 131.156C304.812 133.811 285.443 140.936 280.783 157.078C279.114 162.859 269.413 196.13 261 224.975H292.971C300.779 198.202 309.45 168.471 309.808 167.228C313.203 155.353 316.507 143.77 318.849 135.581C319.924 131.929 322.702 130.249 325.581 129.375C335.551 126.72 354.92 119.596 359.58 103.453C361.07 98.2777 374.423 51.2169 376.26 44.8428L344.289 44.854Z" fill="#191919"/>
<path d="M400.132 44.8091C400.132 44.8091 385.524 95.3202 382.702 105.223C381.671 108.987 378.882 109.973 376.182 110.69C366.212 113.345 346.843 120.469 342.183 136.612C340.099 143.848 325.413 194.191 316.429 224.975H348.4C356.88 195.928 370.76 148.352 371.208 146.761C374.602 134.887 377.907 123.303 380.248 115.115C381.324 111.463 384.102 109.782 386.981 108.909C396.951 106.254 416.32 99.1289 420.98 82.9865C422.47 77.811 432.126 44.8315 432.126 44.8315L400.132 44.8091Z" fill="#191919"/>
<path d="M455.55 416.49C455.55 416.49 446.98 386.479 444.146 376.576C443.116 372.812 440.326 371.826 437.626 371.109C427.656 368.454 408.288 361.33 403.627 345.187C400.928 335.833 377.168 254.381 371.914 236.368H403.885C407.604 249.15 432.048 332.921 432.653 335.038C436.047 346.912 439.352 358.495 441.693 366.684C442.768 370.336 445.546 372.017 448.425 372.89C458.395 375.545 477.764 382.67 482.424 398.812C483.914 403.988 487.533 416.501 487.533 416.501H455.55V416.49Z" fill="#191919"/>
<path d="M344.289 416.49C344.289 416.49 324.136 345.557 321.302 335.654C320.271 331.89 317.482 330.904 314.782 330.187C304.812 327.532 285.443 320.408 280.783 304.265C279.114 298.485 269.413 265.214 261 236.368H292.971C300.779 263.142 309.45 292.872 309.808 294.116C313.203 305.99 316.507 317.574 318.849 325.762C319.924 329.414 322.702 331.095 325.581 331.968C335.551 334.623 354.92 341.748 359.58 357.891C361.07 363.066 374.423 410.127 376.26 416.501L344.289 416.49Z" fill="#191919"/>
<path d="M400.132 416.534C400.132 416.534 385.524 366.023 382.702 356.121C381.671 352.357 378.882 351.371 376.182 350.654C366.212 347.999 346.843 340.874 342.183 324.732C340.099 317.495 325.413 267.152 316.429 236.368H348.4C356.88 265.416 370.76 312.992 371.208 314.582C374.602 326.457 377.907 338.04 380.248 346.229C381.324 349.881 384.102 351.561 386.981 352.435C396.951 355.09 416.32 362.215 420.98 378.357C422.47 383.533 432.126 416.512 432.126 416.512L400.132 416.534Z" fill="#191919"/>
<path d="M528.23 44.8537C528.23 44.8537 536.8 74.8646 539.634 84.7675C540.665 88.5314 543.454 89.5172 546.154 90.2342C556.124 92.8891 575.493 100.014 580.153 116.156C582.853 125.51 606.613 206.962 611.867 224.975H579.895C576.176 212.193 551.733 128.423 551.128 126.306C547.734 114.431 544.429 102.848 542.088 94.6591C541.012 91.0071 538.234 89.3268 535.355 88.453C525.385 85.7981 506.016 78.6734 501.356 62.5309C499.866 57.3555 496.248 44.8425 496.248 44.8425H528.23V44.8537Z" fill="#191919"/>
<path d="M639.491 44.854C639.491 44.854 659.644 115.787 662.479 125.69C663.509 129.454 666.298 130.439 668.998 131.156C678.968 133.811 698.337 140.936 702.997 157.078C704.666 162.859 714.367 196.13 722.78 224.975H690.809C683.001 198.202 674.331 168.471 673.972 167.228C670.578 155.353 667.273 143.77 664.932 135.581C663.856 131.929 661.078 130.249 658.199 129.375C648.229 126.72 628.86 119.596 624.2 103.453C622.71 98.2777 609.357 51.2169 607.52 44.8428L639.491 44.854Z" fill="#191919"/>
<path d="M583.648 44.8091C583.648 44.8091 598.256 95.3202 601.079 105.223C602.109 108.987 604.899 109.973 607.599 110.69C617.569 113.345 636.937 120.469 641.598 136.612C643.681 143.848 658.367 194.191 667.352 224.975H635.38C626.9 195.928 613.021 148.352 612.572 146.761C609.178 134.887 605.873 123.303 603.532 115.115C602.457 111.463 599.679 109.782 596.8 108.909C586.83 106.254 567.461 99.1289 562.801 82.9865C561.311 77.811 551.654 44.8315 551.654 44.8315L583.648 44.8091Z" fill="#191919"/>
<path d="M528.23 416.49C528.23 416.49 536.8 386.479 539.634 376.576C540.665 372.812 543.454 371.826 546.154 371.109C556.124 368.454 575.493 361.33 580.153 345.187C582.853 335.833 606.613 254.381 611.867 236.368H579.895C576.176 249.15 551.733 332.921 551.128 335.038C547.734 346.912 544.429 358.495 542.088 366.684C541.012 370.336 538.234 372.017 535.355 372.89C525.385 375.545 506.016 382.67 501.356 398.812C499.866 403.988 496.248 416.501 496.248 416.501H528.23V416.49Z" fill="#191919"/>
<path d="M639.491 416.49C639.491 416.49 659.644 345.557 662.479 335.654C663.509 331.89 666.298 330.904 668.998 330.187C678.968 327.532 698.337 320.408 702.997 304.265C704.666 298.485 714.367 265.214 722.78 236.368H690.809C683.001 263.142 674.331 292.872 673.972 294.116C670.578 305.99 667.273 317.574 664.932 325.762C663.856 329.414 661.078 331.095 658.199 331.968C648.229 334.623 628.86 341.748 624.2 357.891C622.71 363.066 609.357 410.127 607.52 416.501L639.491 416.49Z" fill="#191919"/>
<path d="M583.648 416.534C583.648 416.534 598.256 366.023 601.079 356.121C602.109 352.357 604.899 351.371 607.599 350.654C617.569 347.999 636.937 340.874 641.598 324.732C643.681 317.495 658.367 267.152 667.352 236.368H635.38C626.9 265.416 613.021 312.992 612.572 314.582C609.178 326.457 605.873 338.04 603.532 346.229C602.457 349.881 599.679 351.561 596.8 352.435C586.83 355.09 567.461 362.215 562.801 378.357C561.311 383.533 551.654 416.512 551.654 416.512L583.648 416.534Z" fill="#191919"/>
<defs>
<clipPath id="clip0_69_1687">
<rect width="984" height="255" fill="white" transform="translate(0 454)"/>
</clipPath>
</defs>
</svg>
