<svg width="240" height="72" fill="none" xmlns="http://www.w3.org/2000/svg">
  <g clip-path="url(#a)">
    <path d="M63.719 35.75 31.859 3.875 0 35.75l31.86 31.875L63.718 35.75Z" fill="url(#b)"/>
    <path d="M31.86 4.683 62.91 35.75 31.86 66.817.807 35.75 31.86 4.683Z" stroke="#15B79F"/>
    <path fill-rule="evenodd" clip-rule="evenodd" d="m35.842 46.11-6.468-6.472c-.145-.145.043-.568.42-.945l5.007-5.01c.377-.376.8-.565.945-.42l6.468 6.471 9.507-9.511a1.198 1.198 0 0 1 1.694 0l4.677 4.68a1.2 1.2 0 0 1 0 1.695L32.707 61.996a1.198 1.198 0 0 1-1.695 0l-4.677-4.68a1.2 1.2 0 0 1 0-1.695l9.507-9.512ZM21.505 31.765l-9.507 9.511a1.198 1.198 0 0 1-1.694 0l-4.678-4.68a1.2 1.2 0 0 1 0-1.695L31.012 9.504a1.198 1.198 0 0 1 1.695 0l2.52 2.522L45.9 22.704c.163.163-.01.602-.387.979l-5.006 5.009c-.377.377-.815.55-.979.387l-7.669-7.673-3.982 3.985 6.091 6.094c.145.145-.043.568-.42.945l-5.008 5.01c-.377.377-.8.566-.945.42l-6.09-6.093Z" fill="#fff"/>
    <path d="M80.052 33.352V14.75h12.31v3.242h-8.379v4.433h7.563v3.243h-7.563v7.684h-3.93Zm26.44-18.602h3.931v12.08c0 1.357-.324 2.544-.972 3.56-.641 1.018-1.54 1.812-2.696 2.38-1.156.564-2.503.845-4.04.845-1.544 0-2.893-.281-4.05-.844-1.155-.57-2.054-1.363-2.696-2.38-.641-1.017-.962-2.204-.962-3.56V14.75h3.931v11.744c0 .709.154 1.338.463 1.89.315.55.757.984 1.326 1.298.569.315 1.231.473 1.988.473.762 0 1.425-.158 1.988-.473a3.308 3.308 0 0 0 1.316-1.298c.315-.552.473-1.181.473-1.89V14.75Zm7.165 18.602V14.75h3.931v15.36h7.971v3.242h-11.902Zm14.505 0V14.75h3.931v15.36h7.971v3.242h-11.902Zm15.141 0V14.75h2.252v8.284h9.914V14.75h2.251v18.602h-2.251v-8.32h-9.914v8.32h-2.252Zm18.925 0V14.75h11.221v1.998h-8.97v6.286h8.389v1.998h-8.389v6.322h9.115v1.998h-11.366Zm16.042 0h-2.361l6.827-18.602h2.324l6.827 18.602h-2.36l-5.556-15.66h-.145l-5.556 15.66Zm.871-7.266h9.515v1.998h-9.515v-1.998Zm15.643 7.266V14.75h2.251v16.604h8.643v1.998h-10.894Zm10.892-16.604V14.75h13.944v1.998h-5.846v16.604h-2.252V16.748h-5.846Zm17.419 16.604V14.75h2.252v8.284h9.914V14.75h2.251v18.602h-2.251v-8.32h-9.914v8.32h-2.252Z" fill="#232323"/>
    <path d="M148.367 37.349h2.032l4.778 11.677h.165l4.779-11.677h2.032v14.068h-1.593V40.728h-.137l-4.394 10.689h-1.538l-4.394-10.689h-.137v10.689h-1.593V37.349Zm17.2 14.068V37.349h8.486v1.51h-6.783v4.754h6.344v1.511h-6.344v4.781h6.893v1.512h-8.596Zm15.894 0h-4.339V37.349h4.531c1.364 0 2.532.281 3.502.845.97.558 1.714 1.362 2.231 2.41.518 1.045.776 2.295.776 3.751 0 1.466-.261 2.727-.783 3.785a5.573 5.573 0 0 1-2.279 2.432c-.998.563-2.211.845-3.639.845Zm-2.636-1.512h2.526c1.163 0 2.126-.224 2.891-.673a4.147 4.147 0 0 0 1.709-1.916c.376-.83.563-1.816.563-2.96 0-1.137-.185-2.114-.556-2.934-.37-.824-.924-1.456-1.661-1.896-.737-.444-1.655-.666-2.753-.666h-2.719v11.045Zm13.896-12.556v14.068h-1.703V37.349h1.703Zm14.729 4.396h-1.703a3.544 3.544 0 0 0-1.435-2.226 3.844 3.844 0 0 0-1.174-.577 4.688 4.688 0 0 0-1.346-.192c-.851 0-1.622.215-2.313.646-.687.43-1.234 1.064-1.641 1.902-.403.838-.605 1.866-.605 3.085 0 1.218.202 2.246.605 3.084.407.838.954 1.472 1.641 1.903a4.29 4.29 0 0 0 2.313.645c.467 0 .916-.064 1.346-.192.43-.128.822-.318 1.174-.57a3.611 3.611 0 0 0 1.435-2.233h1.703a5.667 5.667 0 0 1-.701 1.93 5.253 5.253 0 0 1-1.263 1.45 5.527 5.527 0 0 1-1.696.9 6.313 6.313 0 0 1-1.998.309c-1.199 0-2.265-.293-3.199-.88-.934-.585-1.668-1.419-2.204-2.5-.536-1.08-.803-2.363-.803-3.846 0-1.484.267-2.766.803-3.847.536-1.08 1.27-1.914 2.204-2.5.934-.587 2-.88 3.199-.88.71 0 1.376.103 1.998.31a5.446 5.446 0 0 1 1.696.906 5.16 5.16 0 0 1 1.263 1.443c.339.563.573 1.206.701 1.93Zm3.328 9.672h-1.785l5.163-14.068h1.757l5.163 14.068h-1.785l-4.201-11.843h-.11l-4.202 11.843Zm.659-5.496h7.195v1.511h-7.195v-1.51Zm11.83 5.496V37.349h1.702v12.556h6.536v1.512h-8.238Z" fill="#17BDA3"/>
  </g>
  <defs>
    <linearGradient id="b" x1="47.789" y1="19.813" x2="15.914" y2="51.672" gradientUnits="userSpaceOnUse">
      <stop stop-color="#1CCFB1"/>
      <stop offset="1" stop-color="#15B79F"/>
    </linearGradient>
    <clipPath id="a">
      <path fill="#fff" d="M0 0h240v72H0z"/>
    </clipPath>
  </defs>
</svg>
