<svg width="200" height="48" viewBox="0 0 200 48" fill="none" xmlns="http://www.w3.org/2000/svg">
<g clip-path="url(#clip0_1424_24037)">
<path d="M8.57972 30.8926H4.29005C3.21035 30.8926 2.6558 30.338 2.6558 29.6085C2.77253 28.879 3.29768 28.2371 3.99807 28.0328C4.26064 28.0328 5.13599 28.5873 6.77023 28.5873C10.0675 28.5873 12.1396 25.9319 12.1396 22.9554C12.1396 20.3291 10.7973 19.2494 10.7973 19.2494L12.5189 18.7824C12.7524 18.7533 12.8691 18.4614 12.8691 18.2573V17.4693C12.8691 17.1482 12.6065 16.8856 12.2854 16.8856H6.74112C3.50203 16.8856 1.34264 19.4243 1.34264 22.6634C1.31353 23.8598 1.66373 25.0272 2.30561 26.0483C2.21857 26.0486 0.000661917 27.3036 0.000661917 29.8129C-0.0284483 31.2719 0.905115 32.5559 2.3059 32.9934V33.1102C2.07243 33.3145 0.496699 34.2481 0.496699 36.2908C0.496699 38.4793 2.33501 40.7845 6.82874 40.7845C11.0017 40.7845 13.4819 38.2749 13.4819 35.2987C13.4819 32.3807 11.3228 30.8926 8.57972 30.8926ZM6.88726 19.4828C8.4921 19.4828 9.5718 20.8251 9.5718 22.6928C9.5718 24.5605 8.4921 25.9028 6.88726 25.9028H6.85815C5.2533 25.9028 4.08598 24.5896 4.08598 22.6928C4.08598 20.796 5.28241 19.4828 6.88726 19.4828ZM6.88726 38.1294C4.96133 38.1294 3.61906 37.1082 3.61906 35.7074C3.61906 34.1608 5.16568 33.6356 5.34063 33.5771C6.24509 33.5189 7.20805 33.5189 8.11279 33.5189C10.1555 33.5189 10.4765 34.9197 10.4765 35.4448C10.4765 37.0791 8.78408 38.1294 6.88726 38.1294ZM19.6393 29.5503V18.2282C19.6393 17.9071 19.9018 17.6445 20.2229 17.6445H21.1859C21.3902 17.6736 21.5943 17.7904 21.711 17.9656L22.0612 18.9577C22.9366 17.8489 24.3082 17.2361 25.7087 17.2652C26.8761 17.2652 28.3351 17.5569 27.9849 18.3449L27.2262 19.7748C27.1095 20.0374 26.8178 20.1832 26.555 20.0959C26.5259 20.0959 26.4967 20.0668 26.4967 20.0668C26.2051 19.9209 25.8549 19.8624 25.5338 19.8333C24.3959 19.8333 23.3162 20.417 22.7325 21.4091V29.5503C22.7325 30.1048 22.3823 30.1631 21.8863 30.1631H20.3105C19.9603 30.134 19.6687 29.8714 19.6393 29.5503ZM38.5484 17.1776C34.8132 17.1776 32.3036 20.3291 32.3036 23.8598C32.3036 27.7117 34.8132 30.6006 38.5775 30.6006C40.2408 30.6297 41.8748 30.1046 43.1879 29.0831C43.5672 28.7914 43.4796 28.5285 43.2462 28.2951L42.3708 27.0404C42.1373 26.7193 41.9039 26.8361 41.5246 27.0695C40.7075 27.6532 39.7445 28.0034 38.7524 28.0616C36.7389 28.0616 35.2799 26.2815 35.1631 24.4432H43.6255C43.9171 24.4432 44.18 24.1806 44.18 23.8887C44.2091 23.597 44.2382 23.305 44.2382 23.0133C44.2673 19.7451 41.7872 17.1773 38.5481 17.1773L38.5484 17.1776ZM35.3384 22.4593C35.5427 20.8836 36.9141 19.6872 38.519 19.7163C40.0365 19.7454 41.2911 20.9418 41.3787 22.4593H35.3384ZM54.8311 29.8129L49.4035 18.4616C49.2577 18.1991 49.3453 17.8489 49.637 17.703C49.7246 17.6448 49.8414 17.6154 49.9287 17.6448H51.9714C52.2048 17.6739 52.3798 17.7907 52.4965 17.995L56.3484 26.3697H56.3775L60.1126 17.995C60.2293 17.7615 60.4919 17.6157 60.7839 17.6448H62.564C62.8556 17.6157 63.1185 17.8198 63.1767 18.1117C63.2058 18.2285 63.1767 18.3452 63.0891 18.4619L55.1519 35.7368C55.0643 35.9411 54.8602 36.087 54.6268 36.1161H52.7594C52.4383 36.1452 52.1757 35.9117 52.1466 35.5909C52.1466 35.4742 52.1757 35.3575 52.2342 35.2699L54.8314 29.8132L54.8311 29.8129ZM75.8996 17.2652C74.4988 17.2361 73.1566 17.7613 72.1354 18.6951L71.8143 17.9071C71.6976 17.7321 71.4932 17.6154 71.2892 17.6154H70.3262C70.0051 17.6154 69.7425 17.9071 69.7425 18.2282V35.503C69.7425 35.8241 70.0051 36.0867 70.3262 36.1158H72.1645C72.4856 36.174 72.7773 35.9408 72.8064 35.6198V29.7252C73.7111 30.2504 74.7032 30.5133 75.7535 30.5133C79.1093 30.5133 81.7939 27.7702 81.7939 23.8892C81.7939 20.125 79.2843 17.2652 75.8993 17.2652H75.8996ZM75.3745 28.0037C74.3824 28.0037 73.4485 27.6535 72.6608 27.0407L72.6026 27.0698V21.9633C73.011 20.7087 74.1783 19.833 75.4915 19.833C77.5924 19.833 78.8764 21.7298 78.8764 23.9475C78.8764 26.1651 77.4171 28.0037 75.3745 28.0037ZM93.5832 17.207C92.1242 17.1779 90.6652 17.4405 89.3229 17.9365C89.0312 18.0241 88.856 18.3158 88.9436 18.6369V18.666L89.1771 19.8333C89.2647 20.2126 89.4688 20.5046 89.8189 20.3879C90.9569 19.9795 92.1242 19.7751 93.3206 19.746C94.9255 19.746 95.3048 20.6213 95.2756 22.7807C94.4585 22.5764 93.6123 22.4596 92.7661 22.4596C89.6146 22.4596 87.9221 23.9772 87.9221 26.253V26.3697C87.9221 29.0834 89.4979 30.6009 91.8031 30.6009C93.233 30.63 94.6335 30.0757 95.655 29.0834L95.9466 29.9005C96.0343 30.1048 96.2383 30.2216 96.4427 30.2216H97.2598C97.5809 30.1925 97.8143 29.9299 97.8143 29.6088V23.0433C97.8143 19.6293 97.4641 17.207 93.5832 17.207ZM95.2465 26.6323C94.8672 27.4494 93.6708 28.4706 92.3867 28.4706C91.2194 28.4706 90.4608 27.5367 90.4608 26.3112V26.1945C90.4608 24.8813 91.5114 24.0936 93.0286 24.0936C93.7872 24.0936 94.5461 24.2685 95.2462 24.5896V26.6323H95.2465ZM105.547 18.2282C105.547 17.9071 105.81 17.6445 106.131 17.6445H106.919C107.123 17.6736 107.327 17.7904 107.444 17.9656L107.794 18.9577C108.67 17.8489 110.041 17.2361 111.442 17.2652C112.609 17.2652 114.068 17.5569 113.718 18.3449L112.959 19.7748C112.842 20.0374 112.551 20.1832 112.288 20.0959C112.259 20.0959 112.23 20.0668 112.23 20.0668C111.909 19.9209 111.588 19.8624 111.238 19.8333C110.1 19.8333 109.02 20.417 108.436 21.4091V29.5503C108.436 30.1048 108.086 30.1631 107.59 30.1631H106.014C105.693 30.1631 105.518 29.9005 105.518 29.5794L105.547 18.2282H105.547ZM119.612 29.5794V18.2282C119.612 17.9071 119.875 17.6445 120.196 17.6445H120.984C121.188 17.6736 121.392 17.7904 121.509 17.9656L121.859 18.9577C122.735 17.8489 124.106 17.2361 125.507 17.2652C126.674 17.2652 128.133 17.5569 127.783 18.3449L127.024 19.7748C126.966 19.9206 126.849 20.0374 126.703 20.0959C126.557 20.1541 126.412 20.125 126.265 20.0668C125.944 19.9209 125.624 19.8624 125.273 19.8333C124.135 19.8333 123.056 20.417 122.443 21.4091V29.5503C122.443 30.1048 122.093 30.1631 121.597 30.1631H120.021C119.788 30.1631 119.613 29.9005 119.613 29.5794H119.612ZM138.113 17.2652C134.64 17.2652 132.072 20.125 132.072 23.8601C132.072 27.6829 134.64 30.5424 138.113 30.5424C141.556 30.5424 144.153 27.6535 144.153 23.8601C144.153 20.125 141.585 17.2652 138.113 17.2652ZM138.113 28.0037C136.158 28.0037 134.611 26.1363 134.611 23.8601C134.611 21.6425 136.158 19.8333 138.113 19.8333C140.068 19.8333 141.614 21.6425 141.614 23.8601C141.614 26.1363 140.068 28.0037 138.113 28.0037ZM151.623 27.0116V20.125H150.281C149.96 20.125 149.697 19.8624 149.697 19.5413V18.1991C149.697 17.878 149.96 17.6154 150.281 17.6154H151.652V16.2731C151.682 15.9521 151.944 15.7186 152.236 15.6895H153.958C154.279 15.6895 154.512 15.9521 154.512 16.2731V17.6154H155.855C156 17.6154 156.176 17.6736 156.292 17.7613C156.409 17.878 156.467 18.0238 156.467 18.1697V19.5119C156.438 19.833 156.176 20.0956 155.855 20.0956H154.541V26.632C154.541 27.7408 154.95 27.9452 155.533 27.9452C156.175 27.9452 157.051 27.5659 157.459 27.3615C157.868 27.1571 158.043 27.3615 158.189 27.6532L158.743 28.9663C158.918 29.2874 158.772 29.5209 158.481 29.6376C157.313 30.1337 156.088 30.4256 154.833 30.4839C152.324 30.5424 151.594 29.171 151.623 27.0116Z" fill="#2C2C3C"/>
<path d="M196.032 41.0997L200 46.615L181.704 33.3378L196.032 41.0997ZM183.747 36.7519L195.798 47.9572H199.096L183.747 36.7519Z" fill="#D7004E"/>
<path d="M167.143 8.79706L167.639 6.31659L170.148 7.8341L167.143 8.79706ZM170.994 1.21008L169.594 2.20215L167.959 4.9158L170.994 6.725L170.994 1.21008ZM182.958 12.8824L177.998 14.4872L176.334 19.1853L188.357 23.7082L182.958 12.8824ZM175.722 20.5861L193.639 35.9935L193.901 34.3593L188.999 25.605L175.722 20.5861ZM175.284 22.016L182.637 32.0541L193.989 38.3279L175.284 22.016Z" fill="#2C2C3C"/>
<path d="M175.664 10.9271H182.9V6.55005L175.664 10.9271ZM175.284 0.0427628L172.162 0.918106V2.96077L175.138 5.52857L172.308 7.57124L175.43 9.38043L182.988 5.03254L181.938 2.69819L178.64 0.0427628H175.284ZM172.395 12.182L172.687 14.2829L180.975 12.182H172.395ZM171.491 15.888L170.878 18.1056L175.284 14.8956L171.491 15.888ZM171.111 19.8857L172.658 25.3133L175.985 15.8589L171.112 19.8857H171.111ZM173.504 26.7432L179.866 30.5365L174.701 23.5041L173.504 26.7432ZM171.462 8.53449L172.045 10.9273H175.401L171.462 8.53449Z" fill="#2C2C3C"/>
</g>
<defs>
<clipPath id="clip0_1424_24037">
<rect width="200" height="47.9145" fill="white" transform="translate(0 0.0427628)"/>
</clipPath>
</defs>
</svg>
