<svg xmlns="http://www.w3.org/2000/svg" width="5179" height="909" fill="none"><path fill="#000" d="M0 0h424.65v223.5c0 111.092-90.058 201.15-201.15 201.15H0zm0 469.35h223.5c111.092 0 201.15 90.057 201.15 201.15V894H0zM894 894H469.35V670.5c0-111.093 90.057-201.15 201.15-201.15H894zM1144.4 0h85.6c41.5 0 77.6 32.5 77.6 77v673H1613c43 0 77.4 36.5 77.4 77v67h-546zM1857 241.2h82.96V819c0 40-32.46 75-73.96 75h-83.24V316c0-35.5 28.24-74.8 74.24-74.8m305 0h70.71v151.2l-16.8-25.2q18-68.4 70.8-104.4t128.4-36q81.6 0 141.6 42 61.2 42 79.2 110.4l-44.4 3.6q30-76.8 88.8-116.4t139.2-39.6q69.6 0 123.6 32.4 55.2 31.2 86.4 87.6 31.2 55.2 31.2 127.2v345c0 38-29.21 75-74.71 75h-82.49V511.2q0-42-15.6-73.2-15.6-32.4-44.4-49.2-27.6-18-66-18-56.4 0-91.2 38.4-34.8 37.2-34.8 102V819c0 37.5-30.01 75-74.51 75h-82.69V511.2q0-42-15.6-73.2-15.6-32.4-44.4-49.2-27.6-18-66-18-57.6 0-92.4 38.4-33.6 37.2-33.6 102V819c0 38.5-31.31 75-74.31 75h-82.89V318c0-43 34.39-76.8 76.89-76.8m1109 0h70.3v128.4l-12-22.8q22.8-58.8 73.2-88.8 51.6-31.2 123.6-31.2 70.8 0 127.2 31.2t87.6 87.6 31.2 128.4v345c0 43-35.1 75-74.1 75h-83.1V511.2q0-42-16.8-73.2-16.8-32.4-46.8-49.2-30-18-68.4-18-58.8 0-96 38.4-36 38.4-36 102V819c0 44.5-35.9 75-73.9 75h-83.3V318c0-43.5 35.8-76.8 77.3-76.8m952.03 667.2q-93.6 0-174-44.4-79.2-44.4-124.8-122.4t-45.6-174q0-97.2 45.6-174 45.6-78 124.8-122.4t174-44.4q96 0 174 44.4 79.2 44.4 124.8 122.4 46.8 78 46.8 174 0 97.2-46.8 175.2-45.6 76.8-124.8 121.2t-174 44.4m1.2-144q51.6 0 92.4-25.2t63.6-69.6q24-45.6 24-102t-24-100.8q-22.8-44.4-63.6-69.6-40.8-26.4-93.6-26.4-51.6 0-93.6 26.4-40.8 25.2-64.8 69.6-22.8 44.4-22.8 100.8t22.8 102q24 44.4 64.8 69.6 42 25.2 94.8 25.2M1939.96 0H1856c-39.5 0-73.24 34-73.24 75v88h157.2zm2812.43 861.759q78.375 48.175 181.62 46.377 73.23-1.122 128.88-26.555c37.91-16.941 66.72-40.442 86.45-70.502 19.74-30.86 29.55-65.894 29.44-105.102-.79-46.421-16.1-86.294-45.92-119.62-29.01-34.111-70.59-58.84-124.73-74.188l-104.05-21.019c-23.89-6.018-42.95-14.752-57.15-26.201-13.4-11.436-20.35-25.959-20.84-43.571q-.69-28.817 22.41-46.416c15.42-12.532 35.94-18.975 61.55-19.328 33.61-.214 63.46 8.309 89.57 25.567 26.9 17.272 46.5 40.417 58.79 69.436l58.72-28.979c58.57-28.583 32.3-104.732-43.58-150.784-47.49-29.633-102.04-44.187-163.66-43.663-46.42.79-87.79 10.07-124.1 27.839-36.31 16.969-64.33 40.883-84.07 71.743-19.73 30.061-29.53 64.695-29.42 103.903q1.215 68.431 44.7 120.798c29.01 34.112 70.59 58.441 124.75 72.989l106.47 19.861c22.32 4.39 40.58 12.71 54.77 24.959q21.3 17.175 22.02 44.792c.42 21.61-7.87 38.668-24.9 51.173-16.22 12.519-38.73 18.927-67.54 19.224-36.01.172-69.04-9.606-99.1-29.334q-45.075-30.791-71.73-85.265l-58.71 28.98c-58.77 29.479-26.88 114.841 49.36 162.886"/></svg>