<?xml version="1.0" encoding="utf-8"?>
<!-- Generator: Adobe Illustrator 27.4.0, SVG Export Plug-In . SVG Version: 6.00 Build 0)  -->
<svg version="1.1" id="Layer_1" xmlns="http://www.w3.org/2000/svg" xmlns:xlink="http://www.w3.org/1999/xlink" x="0px" y="0px"
	 viewBox="0 0 140 45" style="enable-background:new 0 0 140 45;" xml:space="preserve">
<style type="text/css">
	.st0{fill:#FFFFFF;}
</style>
<path class="st0" d="M62.1,7.9c-8,0-14.4,6.5-14.4,14.6s6.5,14.6,14.4,14.6c2.6,0,5.1-0.7,7.2-2l-1.8-5c-1.5,1.1-3.4,1.8-5.4,1.8
	c-5.1,0-9.3-4.2-9.3-9.4c0-5.2,4.2-9.4,9.3-9.4c4.2,0,7.8,2.9,8.9,6.8H58.3l1.9,5.2l16.1,0c0.2-0.8,0.2-1.7,0.2-2.6
	C76.5,14.4,70,7.9,62.1,7.9z M134.9,0v22.5c0,5.2-4.2,9.4-9.3,9.4c-5.1,0-9.3-4.2-9.3-9.4s4.2-9.4,9.3-9.4c1.1,0,2.2,0.2,3.2,0.6
	l1.8-4.9c-1.5-0.6-3.2-0.9-5-0.9c-8,0-14.4,6.5-14.4,14.6s6.5,14.6,14.4,14.6S140,30.6,140,22.5V0H134.9z M93.8,7.9
	c-8,0-14.4,6.5-14.4,14.6l0,14.2h5.2V22.5c0-5.2,4.2-9.4,9.3-9.4c5.1,0,9.3,4.2,9.3,9.4v14.2h5.2V22.5
	C108.2,14.4,101.8,7.9,93.8,7.9z M14.4,7.9C6.5,7.9,0,14.4,0,22.5V45h5.2V22.5c0-5.2,4.2-9.4,9.3-9.4c5.1,0,9.3,4.2,9.3,9.4
	s-4.2,9.4-9.3,9.4c-1.1,0-2.2-0.2-3.2-0.6l-1.8,4.9c1.5,0.6,3.2,0.9,5,0.9c8,0,14.4-6.5,14.4-14.6S22.4,7.9,14.4,7.9z M36.9,22.5V0
	h-5.2v22.5c0,8.1,6.5,14.6,14.4,14.6v-5.2C41.1,31.9,36.9,27.7,36.9,22.5z"/>
</svg>
